<svg xmlns="http://www.w3.org/2000/svg" viewBox="0 0 1440 900" fill="none">
  <rect width="1440" height="900" fill="#0f172a"/>
  <rect x="0" y="0" width="280" height="900" fill="#1e293b"/>
  <rect x="0" y="0" width="280" height="64" fill="#0d9488" opacity="0.3"/>
  <text x="24" y="40" font-family="system-ui,sans-serif" font-size="18" font-weight="700" fill="#14b8a6">POS Full Admin</text>
  <rect x="16" y="80" width="248" height="36" rx="6" fill="#334155"/>
  <text x="36" y="104" font-family="system-ui,sans-serif" font-size="13" fill="#94a3b8">🔍  Search...</text>
  <text x="48" y="142" font-family="system-ui,sans-serif" font-size="14" fill="#64748b">📊 Dashboard</text>
  <rect x="0" y="156" width="280" height="40" fill="#0d9488" opacity="0.15"/>
  <text x="48" y="182" font-family="system-ui,sans-serif" font-size="14" font-weight="600" fill="#14b8a6">📦 Products</text>
  <text x="48" y="222" font-family="system-ui,sans-serif" font-size="14" fill="#94a3b8">📁 Categories</text>
  <text x="48" y="262" font-family="system-ui,sans-serif" font-size="14" fill="#94a3b8">👥 Customers</text>
  <text x="48" y="302" font-family="system-ui,sans-serif" font-size="14" fill="#94a3b8">🛒 Sales</text>
  <text x="48" y="342" font-family="system-ui,sans-serif" font-size="14" fill="#94a3b8">👤 Employees</text>
  <text x="48" y="382" font-family="system-ui,sans-serif" font-size="14" fill="#94a3b8">📋 Suppliers</text>
  <rect x="280" y="0" width="1160" height="64" fill="#1e293b"/>
  <text x="310" y="40" font-family="system-ui,sans-serif" font-size="20" font-weight="700" fill="#f1f5f9">Products</text>
  <text x="1280" y="40" font-family="system-ui,sans-serif" font-size="14" fill="#94a3b8">admin@pos-full.local</text>
  <!-- Add Product button -->
  <rect x="310" y="88" width="140" height="36" rx="6" fill="#0d9488"/>
  <text x="330" y="112" font-family="system-ui,sans-serif" font-size="13" font-weight="600" fill="#fff">+ Add Product</text>
  <!-- Search/filter bar -->
  <rect x="480" y="88" width="240" height="36" rx="6" fill="#1e293b" stroke="#334155" stroke-width="1"/>
  <text x="500" y="112" font-family="system-ui,sans-serif" font-size="13" fill="#64748b">🔍  Search products...</text>
  <rect x="740" y="88" width="100" height="36" rx="6" fill="#1e293b" stroke="#334155" stroke-width="1"/>
  <text x="760" y="112" font-family="system-ui,sans-serif" font-size="13" fill="#94a3b8">📁 Category</text>
  <!-- Product table -->
  <rect x="310" y="145" width="1100" height="500" rx="8" fill="#1e293b" stroke="#334155" stroke-width="1"/>
  <text x="330" y="178" font-family="system-ui,sans-serif" font-size="11" font-weight="600" fill="#64748b">Name</text>
  <text x="530" y="178" font-family="system-ui,sans-serif" font-size="11" font-weight="600" fill="#64748b">Category</text>
  <text x="690" y="178" font-family="system-ui,sans-serif" font-size="11" font-weight="600" fill="#64748b">Price</text>
  <text x="790" y="178" font-family="system-ui,sans-serif" font-size="11" font-weight="600" fill="#64748b">Cost</text>
  <text x="890" y="178" font-family="system-ui,sans-serif" font-size="11" font-weight="600" fill="#64748b">Stock</text>
  <text x="990" y="178" font-family="system-ui,sans-serif" font-size="11" font-weight="600" fill="#64748b">Status</text>
  <text x="1100" y="178" font-family="system-ui,sans-serif" font-size="11" font-weight="600" fill="#64748b">Created</text>
  <line x1="330" y1="188" x2="1390" y2="188" stroke="#334155" stroke-width="1"/>
  <!-- Row 1 -->
  <rect x="330" y="196" width="50" height="50" rx="6" fill="#334155"/>
  <text x="370" y="226" font-family="system-ui,sans-serif" font-size="13" fill="#f1f5f9">Coffee Beans (Arabica)</text>
  <text x="530" y="226" font-family="system-ui,sans-serif" font-size="12" fill="#94a3b8">Beverages</text>
  <text x="690" y="226" font-family="system-ui,sans-serif" font-size="12" fill="#f1f5f9">$12.00</text>
  <text x="790" y="226" font-family="system-ui,sans-serif" font-size="12" fill="#94a3b8">$8.50</text>
  <text x="890" y="226" font-family="system-ui,sans-serif" font-size="12" fill="#f1f5f9">45</text>
  <rect x="990" y="215" width="60" height="18" rx="9" fill="#22c55e" opacity="0.2"/>
  <text x="998" y="228" font-family="system-ui,sans-serif" font-size="10" fill="#22c55e">Active</text>
  <text x="1110" y="226" font-family="system-ui,sans-serif" font-size="11" fill="#64748b">Jul 15, 2026</text>
  <line x1="330" y1="254" x2="1390" y2="254" stroke="#1e293b" stroke-width="1"/>
  <!-- Row 2 -->
  <text x="370" y="280" font-family="system-ui,sans-serif" font-size="13" fill="#f1f5f9">Fresh Milk (Whole)</text>
  <text x="530" y="280" font-family="system-ui,sans-serif" font-size="12" fill="#94a3b8">Dairy</text>
  <text x="690" y="280" font-family="system-ui,sans-serif" font-size="12" fill="#f1f5f9">$3.50</text>
  <text x="790" y="280" font-family="system-ui,sans-serif" font-size="12" fill="#94a3b8">$2.10</text>
  <text x="890" y="280" font-family="system-ui,sans-serif" font-size="12" fill="#f1f5f9">120</text>
  <rect x="990" y="269" width="60" height="18" rx="9" fill="#22c55e" opacity="0.2"/>
  <text x="998" y="282" font-family="system-ui,sans-serif" font-size="10" fill="#22c55e">Active</text>
  <text x="1110" y="280" font-family="system-ui,sans-serif" font-size="11" fill="#64748b">Jul 14, 2026</text>
  <line x1="330" y1="308" x2="1390" y2="308" stroke="#1e293b" stroke-width="1"/>
  <!-- Row 3 -->
  <text x="370" y="334" font-family="system-ui,sans-serif" font-size="13" fill="#f1f5f9">Chocolate Syrup</text>
  <text x="530" y="334" font-family="system-ui,sans-serif" font-size="12" fill="#94a3b8">Toppings</text>
  <text x="690" y="334" font-family="system-ui,sans-serif" font-size="12" fill="#f1f5f9">$4.00</text>
  <text x="790" y="334" font-family="system-ui,sans-serif" font-size="12" fill="#94a3b8">$2.80</text>
  <text x="890" y="334" font-family="system-ui,sans-serif" font-size="12" fill="#f1f5f9">30</text>
  <rect x="990" y="323" width="60" height="18" rx="9" fill="#22c55e" opacity="0.2"/>
  <text x="998" y="336" font-family="system-ui,sans-serif" font-size="10" fill="#22c55e">Active</text>
  <text x="1110" y="334" font-family="system-ui,sans-serif" font-size="11" fill="#64748b">Jul 12, 2026</text>
  <line x1="330" y1="362" x2="1390" y2="362" stroke="#1e293b" stroke-width="1"/>
  <!-- Row 4 -->
  <text x="370" y="388" font-family="system-ui,sans-serif" font-size="13" fill="#f1f5f9">Gluten-Free Bread</text>
  <text x="530" y="388" font-family="system-ui,sans-serif" font-size="12" fill="#94a3b8">Bakery</text>
  <text x="690" y="388" font-family="system-ui,sans-serif" font-size="12" fill="#f1f5f9">$6.50</text>
  <text x="790" y="388" font-family="system-ui,sans-serif" font-size="12" fill="#94a3b8">$4.20</text>
  <text x="890" y="388" font-family="system-ui,sans-serif" font-size="12" fill="#f1f5f9">0</text>
  <rect x="990" y="377" width="70" height="18" rx="9" fill="#ef4444" opacity="0.2"/>
  <text x="998" y="390" font-family="system-ui,sans-serif" font-size="10" fill="#ef4444">Inactive</text>
  <text x="1110" y="388" font-family="system-ui,sans-serif" font-size="11" fill="#64748b">Jul 10, 2026</text>
  <line x1="330" y1="416" x2="1390" y2="416" stroke="#1e293b" stroke-width="1"/>
  <!-- Row 5 -->
  <text x="370" y="442" font-family="system-ui,sans-serif" font-size="13" fill="#f1f5f9">Vanilla Essence</text>
  <text x="530" y="442" font-family="system-ui,sans-serif" font-size="12" fill="#94a3b8">Flavorings</text>
  <text x="690" y="442" font-family="system-ui,sans-serif" font-size="12" fill="#f1f5f9">$2.25</text>
  <text x="790" y="442" font-family="system-ui,sans-serif" font-size="12" fill="#94a3b8">$1.50</text>
  <text x="890" y="442" font-family="system-ui,sans-serif" font-size="12" fill="#f1f5f9">85</text>
  <rect x="990" y="431" width="60" height="18" rx="9" fill="#22c55e" opacity="0.2"/>
  <text x="998" y="444" font-family="system-ui,sans-serif" font-size="10" fill="#22c55e">Active</text>
  <text x="1110" y="442" font-family="system-ui,sans-serif" font-size="11" fill="#64748b">Jul 8, 2026</text>
  <!-- Pagination -->
  <text x="330" y="625" font-family="system-ui,sans-serif" font-size="12" fill="#64748b">1-5 of 532</text>
  <rect x="1300" y="612" width="36" height="24" rx="4" fill="#0d9488"/>
  <text x="1316" y="629" font-family="system-ui,sans-serif" font-size="12" fill="#fff" text-anchor="middle">1</text>
  <rect x="1340" y="612" width="36" height="24" rx="4" fill="#1e293b" stroke="#334155" stroke-width="1"/>
  <text x="1356" y="629" font-family="system-ui,sans-serif" font-size="12" fill="#94a3b8" text-anchor="middle">2</text>
  <rect x="1380" y="612" width="36" height="24" rx="4" fill="#1e293b" stroke="#334155" stroke-width="1"/>
  <text x="1396" y="629" font-family="system-ui,sans-serif" font-size="12" fill="#94a3b8" text-anchor="middle">3</text>
</svg>
